{"title":"Soy Cuba (1964) aka I am Cuba Span Eng subs","uid":5349821,"size":1046174765,"categoryP":"video","categoryS":"movies","magnet":"?xt=urn:btih:6e3be314762877c96ec9cc8d9402b43d45e2ee0e&amp;dn=Soy+Cuba+%281964%29+aka+I+am+Cuba+Span+Eng+subs&amp;tr=udp%3A%2F%2Ftracker.openbittorrent.com%3A80&amp;tr=udp%3A%2F%2Fopen.demonii.com%3A1337&amp;tr=udp%3A%2F%2Ftracker.coppersurfer.tk%3A6969&amp;tr=udp%3A%2F%2Fexodus.desync.com%3A6969","seeders":9,"leechers":1,"uploader":"johnefp","files":-1,"time":1265750100,"description":"An unabashed exercise in cinema stylistics, I Am Cuba is pro-Castro/anti-Batista rhetoric dressed up in the finest clothes. The film's four dramatic stories take place in the final days of the Batista regime; the first two illustrate the ills that led to the revolution, the third and fourth the call to arms which cut across social and economic lines. A lovely young woman in a nightclub frequented by crass American businessmen takes a customer to her modest seaside shack for a night of pleasure for pay, only to be found out by her street vendor suitor; a tenant farmer is told that his crop has been sold to United Fruit and in frustration burns his fields; a middle-class student rallies his pals and workers in a street demonstration against the regime; a peasant eking out a living in the mountains quickly converts to the cause when Batista bombers strafe his land in search of rebel fighters. At face value, this is all obvious agitprop, but director Mikhail Kalazatov turned his cinematographer, Sergei Urusevsky, loose, and the result is a procession of dazzling black-and-white images, shot with a camera that is almost always moving and soaring over the sugar fields, swooping in and out of urban buildings, following characters down narrow streets. Unreleasable to American theaters during the Cold War, I Am Cuba, through the auspices of filmmakers Francis Ford Coppola and Martin Scorsese, got a belated U.S. release in 1995 and has proved to be both a time capsule of a fading political movement and a timeless work of cinematic art.\n\n &lt;a href=&quot;\nhttp://www.imdb.com/title/tt0058604/&quot; rel=&quot;nofollow&quot; target=&quot;_NEW&quot;&gt;\nhttp://www.imdb.com/title/tt0058604/&lt;/a&gt;\n\n &lt;a href=&quot;\nhttp://en.wikipedia.org/wiki/Soy_Cuba&quot; rel=&quot;nofollow&quot; target=&quot;_NEW&quot;&gt;\nhttp://en.wikipedia.org/wiki/Soy_Cuba&lt;/a&gt;\n\n\n\nSubtitles\n &lt;a href=&quot;\nhttp://www.opensubtitles.org/en/search/sublanguageid-all/idmovie-7288&quot; rel=&quot;nofollow&quot; target=&quot;_NEW&quot;&gt;\nhttp://www.opensubtitles.org/en/search/sublanguageid-all/idmovie-7288&lt;/a&gt;\n\n\n\nDirector:\nMikhail Kalatozov\n\n\n\tSergio Corrieri\t ... \tAlberto\n\tSalvador Wood\t\t\n\tJosÃƒÂ© Gallardo\t... \tPedro\n\tRaÃƒÂºl GarcÃƒÂ­a\t... \tEnrique\n\tLuz MarÃƒÂ­a Collazo\t... \tMaria / Betty\n\tJean Bouise\t... \tJim (in Cuban version) (as Jean Bouisse)\n\n\nVideo #2\n      ID : 2\n      Format : VC-1\n      Format profile : MP@ML\n      Codec ID : WMV3\n      Codec ID/Info : Windows Media Video 9\n      Codec ID/Hint : WMV3\n      Duration : 2h 20mn\n      Bit rate mode : Variable\n      Bit rate : 850 Kbps\n      Width : 640 pixels\n      Height : 480 pixels\n      Display aspect ratio : 4/3\n      Frame rate : 25.000 fps\n      Resolution : 24 bits\n      Scan type : Progressive\n      Bits/(Pixel*Frame) : 0.111\n      Stream size : 854 MiB (86%)\n   Audio #1\n      ID : 1\n      Format : WMA2\n      Format profile : L1\n      Codec ID : 161\n      Codec ID/Info : Windows Media Audio 2\n      Description of the codec : Windows Media Audio 9.2 - 128 kbps, 44 kHz, stereo 1-pass CBR\n      Duration : 2h 20mn\n      Bit rate mode : Constant\n      Bit rate : 128 Kbps\n      Channel(s) : 2 channels\n      Sampling rate : 44.1 KHz\n      Resolution : 16 bits\n      Stream size : 129 MiB (13%)\n\n\nPlease seed at least as much as you D/L.\n=======================================\nThanks \n\nJohn","torrent":{"xt":"urn:btih:6e3be314762877c96ec9cc8d9402b43d45e2ee0e","amp;dn":"Soy+Cuba+%281964%29+aka+I+am+Cuba+Span+Eng+subs","amp;tr":["udp%3A%2F%2Ftracker.openbittorrent.com%3A80","udp%3A%2F%2Fopen.demonii.com%3A1337","udp%3A%2F%2Ftracker.coppersurfer.tk%3A6969","udp%3A%2F%2Fexodus.desync.com%3A6969"],"infoHash":"6e3be314762877c96ec9cc8d9402b43d45e2ee0e","infoHashBuffer":{"type":"Buffer","data":[110,59,227,20,118,40,119,201,110,201,204,141,148,2,180,61,69,226,238,14]},"announce":[],"urlList":[]}}